<svg viewBox="0 0 153 31.479" height="31.479" width="153" xmlns="http://www.w3.org/2000/svg" id="liberfly">
  <path fill="#1f63d9" d="M135.758,31.436a16.2,16.2,0,0,1-8.078-2.873,15.748,15.748,0,0,1-6.421-9.694,15.952,15.952,0,0,1,.2-7.134A9.089,9.089,0,0,1,122.69,8.78c.34-.276-.546-.26,11.284-.247l10.7.012.185.095a1.06,1.06,0,0,1,.474.478c.079.152.084.223.063,1.463a9.84,9.84,0,0,1-.1,1.735,6.009,6.009,0,0,1-.584,1.834,4.609,4.609,0,0,1-2.257,2.122,1.642,1.642,0,0,0-.823.717,4.743,4.743,0,0,0-.168.709,10.256,10.256,0,0,1-.31,1.389A5.158,5.158,0,0,1,137,22.855c-.348.062-.881.07-5.749.082l-5.363.017.2.276a13.34,13.34,0,0,0,5.158,4.295A13.591,13.591,0,0,0,135.38,28.7a17.186,17.186,0,0,0,3.19,0,13.633,13.633,0,0,0,6.479-2.6,13.148,13.148,0,0,0,3.928-4.744,12.98,12.98,0,0,0,1.2-4.06,16.174,16.174,0,0,0,0-3.112,12.99,12.99,0,0,0-2.615-6.339A13.2,13.2,0,0,0,141.885,3.6a10.927,10.927,0,0,0-1.364-.445,12.025,12.025,0,0,0-3.546-.457,11.328,11.328,0,0,0-2.56.227,13.383,13.383,0,0,0-4.994,2.069l-.4.276h-1.565c-1.729,0-1.8-.008-1.893-.243-.088-.206-.025-.33.345-.68a16.247,16.247,0,0,1,22.4.264,15.536,15.536,0,0,1,0,22.256A16.119,16.119,0,0,1,135.758,31.436Zm.315-11.239a2.633,2.633,0,0,0,1.825-1.513,3.727,3.727,0,0,0,.336-1.294v-.21H123.747l.025.115c.013.062.042.26.068.437a13.06,13.06,0,0,0,.491,2.015l.184.569,5.611-.012,5.611-.012Zm3.374-5.791a3.139,3.139,0,0,0,2.346-2.143,3.208,3.208,0,0,0,.189-1.059c-.009-.012-3.949-.021-8.75-.021H124.5l-.08.227a13.59,13.59,0,0,0-.667,2.98V14.5l7.713-.012C138.641,14.48,139.2,14.472,139.447,14.406Z" data-name="Path 672" id="Path_672"></path>
  <path fill="#1f63d9" d="M0,23.515V4.812H4.035V12.4l.043,7.459h7.94v3.654H0Z" data-name="Path 673" id="Path_673"></path>
  <path fill="#1f63d9" d="M14.587,23.511s.006-10.25.006-18.7h4.078v18.7Z" data-name="Path 674" id="Path_674"></path>
  <path fill="#1f63d9" d="M22.1,23.511s0-1.028,0-9.777V4.813H32.386a12.8,12.8,0,0,1,1.758.236,4.628,4.628,0,0,1,3.2,4.45,4.322,4.322,0,0,1-2,3.912l-.6.365.73.451a5.024,5.024,0,0,1-.429,8.663,8.1,8.1,0,0,1-2.446.62ZM32.6,19.538c.708-.365.88-.709.88-1.784-.021-1.655-.73-1.978-4.271-1.978H26.4V19.86h2.79C31.225,19.86,32.17,19.774,32.6,19.538Zm-.043-7.932a1.964,1.964,0,0,0,.107-2.751c-.451-.451-.708-.494-3.369-.559L26.4,8.21v3.912h2.768C31.8,12.122,31.976,12.1,32.556,11.606Z" data-name="Path 675" id="Path_675"></path>
  <path fill="#1f63d9" d="M40.561,23.515V4.813H53.866V8.253H44.638v3.869h9.228v3.654H44.638V19.86h9.228v3.654H40.561Z" data-name="Path 676" id="Path_676"></path>
  <path fill="#1f63d9" d="M56.656,23.515V4.814h9.893a4.893,4.893,0,0,1,2.06.645,5.478,5.478,0,0,1,2.747,2.859c1.2,2.88.021,6.427-2.554,7.674l-.944.451,2.017,3.418c1.116,1.87,2.077,3.59,2.077,3.654a21.112,21.112,0,0,1-2.206,0c-1.781,0-2.332-.043-2.332-.043S66.12,21.43,65.24,19.8L63.63,16.851H60.969L60.9,20.14v3.375ZM66.549,12.7a2.379,2.379,0,0,0,.279-3.7c-.665-.623-1.352-.752-3.863-.752H60.948V13.2h2.446C65.562,13.2,65.905,13.154,66.549,12.7Z" data-name="Path 677" id="Path_677"></path>
  <path fill="#1f63d9" d="M74.683,23.515V4.813H87.988V8.253H78.76v3.869h9.228v3.611H83.224l-4.464.043v7.738H74.683Z" data-name="Path 678" id="Path_678"></path>
  <path fill="#1f63d9" d="M90.348,23.515V4.813H94.64V19.86h7.726v3.654H90.348Z" data-name="Path 679" id="Path_679"></path>
  <path fill="#1f63d9" d="M106.658,23.515V15.862l-3.541-5.438c-1.953-2.988-3.581-5.546-3.581-5.61,0-.043,1.07,0,2.358,0h2.3l2.232,3.633,2.254,3.633.558-.881c.3-.494,1.309-2.128,2.231-3.633l1.674-2.751h4.62s-.349.688-4.04,6.363L110.736,15.8v7.717h-4.078Z" data-name="Path 680" id="Path_680"></path>
</svg>